# xmcd CD database file
#
# Track frame offsets:
#	150
#	22569
#	42385
#	60447
#	83099
#	99689
#	119127
#	134319
#	160077
#	177189
#	195457
#	214425
#	231624
#	248211
#	267070
#
# Disc length: 3824 seconds
#
# Revision: 0
# Processed by: cddbd v1.5.2PL0 Copyright (c) Steve Scherf et al.
# Submitted via: CDex 1.70beta2
#
DISCID=ce0eee0f
DTITLE=SMOOTH J - Smooth Sound Collection Vol.1
DYEAR=2008
DGENRE=Jazz
TTITLE0=1.風の丘
TTITLE1=2.RELEASE THE DOGMA
TTITLE2=3.BOIRTHDAY
TTITLE3=4.言葉にできない
TTITLE4=5.BE IN LOVE
TTITLE5=6.FLOWER
TTITLE6=7.LOVERS
TTITLE7=8.LAPUTA(CASTLE IN THE SKY)
TTITLE8=9.DESIRE
TTITLE9=10.DISTANCE
TTITLE10=11.INFULUENCE
TTITLE11=12.SAY YES
TTITLE12=13.やさしいキスをして
TTITLE13=14.PROMISE
TTITLE14=15.KISS
EXTD=YEAR: 2008
EXTT0=
EXTT1=
EXTT2=
EXTT3=
EXTT4=
EXTT5=
EXTT6=
EXTT7=
EXTT8=
EXTT9=
EXTT10=
EXTT11=
EXTT12=
EXTT13=
EXTT14=
PLAYORDER=
